<svg version="1.1" id="Capa_1" xmlns="http://www.w3.org/2000/svg" x="0" y="0" viewBox="0 0 512 512" xml:space="preserve"><style>.st0{fill:#fdb662}</style><path class="st0" d="M409.1 63.4C368.2 22.5 313.8 0 256 0S143.8 22.5 102.9 63.4C62 104.3 39.5 158.7 39.5 216.5c0 117 110.6 214.3 170.1 266.6 8.3 7.3 15.4 13.5 21.1 18.8 7.1 6.7 16.3 10 25.4 10 9.1 0 18.3-3.3 25.4-10 5.7-5.3 12.8-11.6 21.1-18.8 59.4-52.3 170.1-149.6 170.1-266.6-.2-57.8-22.7-112.2-63.6-153.1zM282.7 460.7c-8.4 7.4-15.7 13.8-21.7 19.5-2.8 2.6-7.1 2.6-9.8 0-6-5.6-13.3-12-21.7-19.5-56-49.2-160.1-140.7-160.1-244.2C69.4 113.7 153.1 30 256 30c102.9 0 186.6 83.7 186.6 186.6 0 103.4-104.1 194.9-159.9 244.1z"/><path class="st0" d="M256 112.9c-52.6 0-95.4 42.8-95.4 95.4s42.8 95.4 95.4 95.4 95.4-42.8 95.4-95.4-42.8-95.4-95.4-95.4zm0 160.9c-36.1 0-65.4-29.4-65.4-65.4S220 143 256 143s65.4 29.4 65.4 65.4-29.3 65.4-65.4 65.4z"/></svg>