<svg version="1.1" id="Слой_1" xmlns="http://www.w3.org/2000/svg" x="0" y="0" viewBox="0 0 512 512" xml:space="preserve"><style>.st0{fill:#fdb662;stroke:#000;stroke-miterlimit:10}</style><path class="st0" d="M437 75C388.7 26.6 324.4 0 256 0S123.3 26.6 75 75C26.6 123.3 0 187.6 0 256s26.6 132.7 75 181c48.4 48.4 112.6 75 181 75s132.7-26.6 181-75c48.4-48.4 75-112.6 75-181s-26.6-132.7-75-181zM256 481.2c-124.2 0-225.2-101-225.2-225.2S131.8 30.8 256 30.8s225.2 101 225.2 225.2-101 225.2-225.2 225.2z"/><path class="st0" d="M396.9 240.6H115.1c-8.5 0-15.4 6.9-15.4 15.4s6.9 15.4 15.4 15.4h281.7c8.5 0 15.4-6.9 15.4-15.4.1-8.5-6.8-15.4-15.3-15.4zm-20.6-84.8H135.7c-8.5 0-15.4 6.9-15.4 15.4s6.9 15.4 15.4 15.4h240.6c8.5 0 15.4-6.9 15.4-15.4s-6.9-15.4-15.4-15.4zm0 169.6H135.7c-8.5 0-15.4 6.9-15.4 15.4s6.9 15.4 15.4 15.4h240.6c8.5 0 15.4-6.9 15.4-15.4s-6.9-15.4-15.4-15.4z"/></svg>